<svg width="20" height="20" viewBox="0 0 20 20" fill="none" xmlns="http://www.w3.org/2000/svg">
    <path d="M17.3667 3.84166C16.9411 3.41583 16.4357 3.07803 15.8794 2.84757C15.323 2.61711 14.7271 2.49847 14.1251 2.49847C13.523 2.49847 12.9271 2.61711 12.3707 2.84757C11.8144 3.07803 11.309 3.41583 10.8834 3.84166L10 4.725L9.11669 3.84166C8.25686 2.98183 7.09511 2.49892 5.87502 2.49892C4.65494 2.49892 3.49319 2.98183 2.63336 3.84166C1.77353 4.70149 1.29062 5.86324 1.29062 7.08332C1.29062 8.3034 1.77353 9.46515 2.63336 10.325L3.51669 11.2083L10 17.6917L16.4834 11.2083L17.3667 10.325C17.7926 9.89937 18.1304 9.39401 18.3608 8.83767C18.5913 8.28133 18.7099 7.68541 18.7099 7.08332C18.7099 6.48123 18.5913 5.88531 18.3608 5.32897C18.1304 4.77263 17.7926 4.26727 17.3667 3.84166V3.84166Z" stroke="black" stroke-width="1.5" stroke-linecap="round" stroke-linejoin="round"/>
</svg> 