<svg viewBox="0 0 484 484" xmlns="http://www.w3.org/2000/svg" xmlns:xlink="http://www.w3.org/1999/xlink" width="484" height="484" fill="none" customFrame="#000000">
	<defs>
		<filter id="pixso_custom_mask_type_alpha">
			<feColorMatrix type="matrix" values="0 0 0 0 1 0 0 0 0 1 0 0 0 0 1 0 0 0 1 0 " />
		</filter>
		<clipPath id="clipPath_0">
			<rect width="406" height="110" x="39" y="100" fill="rgb(255,255,255)" />
		</clipPath>
	</defs>
	<mask id="mask_0" width="484" height="484" x="0" y="0" maskUnits="userSpaceOnUse" mask-type="alpha">
		<g filter="url(#pixso_custom_mask_type_alpha)">
			<rect id="矩形 2" width="484" height="484" x="0" y="0" rx="119" fill="rgb(255,193,114)" />
		</g>
	</mask>
	<g id="组合 3">
		<rect id="矩形 1" width="484" height="484" x="0" y="0" rx="119" fill="rgb(255,193,114)" />
		<g id="蒙版" mask="url(#mask_0)">
			<g id="组合 1">
				<path id="矢量 2" d="M225.944 0.655391C180.973 -4.72702 122.764 24.4621 112.94 36.3653C112.94 36.3653 76.9201 40.5057 50.7237 51.8915C24.5273 63.2773 5.97147 82.012 1.6054 96.917C1.6054 96.917 -5.70777 119.792 10.8833 145.048C24.1561 165.252 70.4801 157.158 86.198 151.776C89.635 150.599 93.1183 148.212 96.5283 145.048C96.5283 145.048 98.1728 181.931 108.028 197.319C117.884 212.707 125.165 229.924 160.967 238.204C196.769 246.485 223.729 248.693 272.302 238.204C320.874 227.716 331.141 208.178 339.176 185.905C339.176 185.905 356.894 197.319 374.358 197.319C374.358 197.319 391.003 198.928 414.199 178.688C425.885 168.49 427.686 163.832 428.57 158.542C429.44 153.332 429.48 147.525 429.48 133.145C429.48 104.163 402.956 107.164 392.914 92.2592C382.872 77.3542 377.946 69.2807 360.714 51.8915C343.483 34.5023 326.975 40.1607 320.874 45.1635C291.621 12.0412 261.92 4.96132 225.944 0.655391Z" fill="rgb(255,255,255)" fill-rule="evenodd" transform="matrix(0.965926,-0.258819,0.258819,0.965926,-93,303.158)" />
				<path id="矢量 2" d="M124.947 101.057C119.972 112.514 108.712 133.744 96.5283 145.048C93.1183 148.212 89.635 150.599 86.198 151.776C70.4801 157.158 24.1561 165.252 10.8833 145.048C-5.70777 119.792 1.6054 96.917 1.6054 96.917C5.97147 82.012 24.5273 63.2773 50.7237 51.8915C76.9201 40.5057 112.94 36.3653 112.94 36.3653C122.764 24.4621 180.973 -4.72702 225.944 0.655391C261.92 4.96132 291.621 12.0412 320.874 45.1635C326.975 40.1607 343.483 34.5023 360.714 51.8915C377.946 69.2807 382.872 77.3542 392.914 92.2592C402.956 107.164 429.48 104.163 429.48 133.145C429.48 147.525 429.44 153.332 428.57 158.542C427.686 163.832 425.885 168.49 414.199 178.688C391.003 198.928 374.358 197.319 374.358 197.319C356.894 197.319 339.176 185.905 339.176 185.905M96.5283 145.048C96.5283 145.048 98.1728 181.931 108.028 197.319C117.884 212.707 125.165 229.924 160.967 238.204C196.769 246.485 223.729 248.693 272.302 238.204C320.874 227.716 331.141 208.178 339.176 185.905C342.823 175.795 344.479 166.52 345.433 160.574C348.489 141.529 345.433 134.18 345.433 117.618" fill-rule="evenodd" stroke="rgb(0,0,0)" stroke-linecap="round" stroke-width="10" transform="matrix(0.965926,-0.258819,0.258819,0.965926,-93,303.158)" />
				<ellipse id="椭圆 1" rx="11.460927" ry="15.5260544" cx="11.460927" cy="15.5260544" fill="rgb(0,0,0)" transform="matrix(0.965926,-0.258819,0.258819,0.965926,92.2579,374.607)" />
				<ellipse id="椭圆 2" rx="31.6539898" ry="17.078661" cx="31.6539898" cy="17.078661" fill="rgb(0,0,0)" transform="matrix(0.965926,-0.258819,0.258819,0.965926,135.304,383.433)" />
				<path id="矢量 3" d="M10.9152 82.2881C7.82225 81.2616 5.60528 79.9437 4.01684 78.4414C4.01684 78.4414 4.6172 91.5939 13.4482 97.2731C22.2792 102.952 24.5309 94.5487 41.663 84.7028C33.7797 86.5601 18.1601 84.6927 10.9152 82.2881Z" fill="rgb(255,191,192)" fill-rule="evenodd" transform="matrix(0.965926,-0.258819,0.258819,0.965926,110.834,368.022)" />
				<path id="矢量 3" d="M81.318 11.3858C84.7745 7.59052 89.0678 0 96.0535 0C103.039 0 106.532 3.0017 111.335 6.72796M7.74092e-09 65.2094C-3.44245e-06 69.6601 -0.000467777 74.6419 4.01684 78.4414C5.60528 79.9437 7.82225 81.2616 10.9152 82.2881C18.1601 84.6927 33.7797 86.5601 41.663 84.7028C49.8277 83.2096 53.8208 83.7619 63.9702 76.1287M4.01684 78.4414C4.01684 78.4414 4.6172 91.5939 13.4482 97.2731C22.2792 102.952 24.5309 94.5487 41.663 84.7028" fill-rule="evenodd" stroke="rgb(0,0,0)" stroke-linecap="round" stroke-width="10" transform="matrix(0.965926,-0.258819,0.258819,0.965926,110.834,368.022)" />
				<ellipse id="椭圆 3" rx="20.1930618" ry="26.3942947" cx="20.1930618" cy="26.3942947" fill="rgb(255,191,192)" transform="matrix(0.965926,-0.258819,0.258819,0.965926,61.0169,414.054)" />
				<ellipse id="椭圆 4" rx="21.2845783" ry="22.7715473" cx="21.2845783" cy="22.7715473" fill="rgb(255,191,192)" transform="matrix(0.965926,-0.258819,0.258819,0.965926,218.88,366.396)" />
				<path id="矢量 4" d="M21.2529 78.2156C16.0729 70.6327 2.97044 29.7879 2.97044 29.7879C-1.60018 17.0203 -1.60018 17.0203 7.99813 14.3787C7.99813 14.3787 45.9343 3.8125 59.1891 1.17099C72.4439 -1.47053 71.2555 -0.149817 73.8151 10.4164C77.3192 23.9176 84.3495 52.5818 84.3275 59.2846C84.3055 65.9874 71.8232 79.3771 70.6157 85.2597C69.4081 91.1424 104.933 169.116 103.981 175.073C103.029 181.029 91.114 184.445 87.527 179.915C83.9399 175.386 54.8019 96.319 49.5908 90.5428C44.3797 84.7666 26.433 85.7986 21.2529 78.2156Z" fill="rgb(255,255,255)" fill-rule="evenodd" transform="matrix(-1,0,0,1,361,313)" />
				<path id="矢量 4" d="M21.2529 78.2156C26.433 85.7986 44.3797 84.7666 49.5908 90.5428C54.8019 96.319 83.9399 175.386 87.527 179.915C91.114 184.445 103.029 181.029 103.981 175.073C104.933 169.116 69.4081 91.1424 70.6157 85.2597C71.8232 79.3771 84.3055 65.9874 84.3275 59.2846C84.3495 52.5818 77.3192 23.9176 73.8151 10.4164C71.2555 -0.149817 72.4439 -1.47053 59.1891 1.17099C45.9343 3.8125 7.99813 14.3787 7.99813 14.3787C-1.60018 17.0203 -1.60018 17.0203 2.97044 29.7879C2.97044 29.7879 16.0729 70.6327 21.2529 78.2156ZM21.2529 31.5488L34.0507 66.3291M39.9925 25.3852L52.3332 62.807M57.3608 19.2216L67.8733 57.5239" fill-rule="evenodd" stroke="rgb(0,0,0)" stroke-linecap="round" stroke-width="10" transform="matrix(-1,0,0,1,361,313)" />
				<circle id="椭圆 5" cx="283" cy="448.000122" r="38" fill="rgb(255,255,255)" />
				<circle id="椭圆 5" cx="283" cy="448.000122" r="34" stroke="rgb(0,0,0)" stroke-width="8" />
				<circle id="椭圆 6" cx="137.000061" cy="502.000183" r="38" fill="rgb(255,255,255)" />
				<circle id="椭圆 6" cx="137.000061" cy="502.000183" r="34" stroke="rgb(0,0,0)" stroke-width="8" />
			</g>
		</g>
		<g id="容器 1" customFrame="url(#clipPath_0)">
			<rect id="容器 1" width="406" height="110" x="39" y="100" />
			<rect id="矩形 3" width="30" height="50" x="107" y="130" rx="15.5" fill="rgb(255,255,255)" fill-opacity="0.800000012" />
			<rect id="矩形 4" width="30" height="70" x="147" y="120" rx="15.5" fill="rgb(255,255,255)" />
			<rect id="矩形 5" width="30" height="60" x="187" y="125" rx="15.5" fill="rgb(255,255,255)" fill-opacity="0.800000012" />
			<rect id="矩形 6" width="30" height="80" x="227" y="115" rx="15.5" fill="rgb(255,255,255)" />
			<rect id="矩形 9" width="30" height="75" x="267" y="117.5" rx="15.5" fill="rgb(255,255,255)" />
			<rect id="矩形 7" width="30" height="40" x="307" y="135" rx="15.5" fill="rgb(255,255,255)" fill-opacity="0.800000012" />
			<rect id="矩形 8" width="30" height="60" x="347" y="125" rx="15.5" fill="rgb(255,255,255)" />
		</g>
	</g>
</svg>
